<svg width="44" height="48" viewBox="0 0 44 48" fill="none" xmlns="http://www.w3.org/2000/svg">
<path d="M0 40.8V36H5.5V19.2C5.5 15.88 6.64583 12.94 8.9375 10.38C11.2292 7.78 14.2083 6.08 17.875 5.28V3.6C17.875 2.6 18.2646 1.76 19.0438 1.08C19.8688 0.359999 20.8542 0 22 0C23.1458 0 24.1083 0.359999 24.8875 1.08C25.7125 1.76 26.125 2.6 26.125 3.6V5.28C29.7917 6.08 32.7708 7.78 35.0625 10.38C37.3542 12.94 38.5 15.88 38.5 19.2V36H44V40.8H0ZM22 48C20.4875 48 19.1813 47.54 18.0813 46.62C17.0271 45.66 16.5 44.52 16.5 43.2H27.5C27.5 44.52 26.95 45.66 25.85 46.62C24.7958 47.54 23.5125 48 22 48ZM11 36H33V19.2C33 16.56 31.9229 14.3 29.7688 12.42C27.6146 10.54 25.025 9.6 22 9.6C18.975 9.6 16.3854 10.54 14.2313 12.42C12.0771 14.3 11 16.56 11 19.2V36Z" fill="currentColor"/>
</svg>
